<svg width="35" height="35" viewBox="0 0 35 35" fill="none" xmlns="http://www.w3.org/2000/svg">
<g clip-path="url(#clip0_3283_1390)">
<path d="M32.5862 15.0862H19.9138V2.41379C19.9138 1.08621 18.8276 0 17.5 0C16.1724 0 15.0862 1.08621 15.0862 2.41379V15.0862H2.41379C1.08621 15.0862 0 16.1724 0 17.5C0 18.8276 1.08621 19.9138 2.41379 19.9138H15.0862V32.5862C15.0862 33.9138 16.1724 35 17.5 35C18.8276 35 19.9138 33.9138 19.9138 32.5862V19.9138H32.5862C33.9138 19.9138 35 18.8276 35 17.5C35 16.1724 33.9138 15.0862 32.5862 15.0862Z" fill="white"/>
</g>
<defs>
<clipPath id="clip0_3283_1390">
<rect width="35" height="35" fill="white"/>
</clipPath>
</defs>
</svg>
