<svg width="30" height="30" viewBox="0 0 30 30" fill="none" xmlns="http://www.w3.org/2000/svg">
<path d="M25.2773 0.807501L15 11.0848L4.72259 0.807501C3.64594 -0.269167 1.88417 -0.269167 0.807501 0.807501C-0.269167 1.88419 -0.269167 3.64594 0.807501 4.72275L11.0848 15L0.807501 25.2773C-0.269167 26.354 -0.269167 28.1157 0.807501 29.1924C1.88417 30.2692 3.64594 30.2692 4.72259 29.1924L15 18.9151L25.2773 29.1924C26.354 30.2692 28.1157 30.2692 29.1924 29.1924C30.2692 28.1157 30.2692 26.354 29.1924 25.2773L18.9151 15L29.1924 4.72275C30.2692 3.64594 30.2692 1.88419 29.1924 0.807501C28.1157 -0.269167 26.354 -0.269167 25.2773 0.807501Z" fill="black"/>
</svg>
