<svg width="57" height="66" viewBox="0 0 57 66" fill="none" xmlns="http://www.w3.org/2000/svg">
<path d="M0 63.924C0 43.2971 0 22.6703 0 2.04339C0.0113522 2.01359 0.0283804 1.98521 0.0326374 1.95399C0.168863 1.03872 0.827288 0.305089 1.71985 0.076627C1.82628 0.0482467 1.93554 0.0255423 2.04339 0C19.6052 0 37.167 0 54.7287 0C54.7585 0.0113522 54.7883 0.0269614 54.8196 0.0326374C55.7433 0.194406 56.3549 0.725119 56.6614 1.60775C56.7111 1.74823 56.7352 1.89865 56.7721 2.04339V63.924C56.7622 63.9552 56.7466 63.9864 56.7409 64.0176C56.6118 64.9443 55.9633 65.6736 55.0523 65.9134C54.9118 65.9503 54.7685 65.9716 54.6266 66H2.14556C2.11434 65.9901 2.08454 65.9745 2.05332 65.9702C1.08413 65.8439 0.441315 65.3118 0.114941 64.3951C0.0610178 64.2447 0.0383135 64.0815 0 63.924ZM2.12853 15.2488C2.12853 15.2956 2.12853 15.3566 2.12853 15.4176C2.12853 31.4696 2.12853 47.5215 2.12853 63.5721C2.12853 63.8417 2.14981 63.8615 2.41943 63.8615C19.7315 63.8615 37.0435 63.8615 54.3555 63.8615C54.6237 63.8615 54.645 63.8403 54.645 63.5706C54.645 47.5641 54.645 31.5576 54.645 15.5525C54.645 15.4914 54.645 15.4304 54.645 15.3481H41.749C41.7532 15.3992 41.7546 15.4545 41.7617 15.5099C41.9746 17.3205 41.3545 18.7935 39.9539 19.9443C39.4445 20.3629 38.8598 20.6467 38.2397 20.8638C38.1787 20.8851 38.0992 20.9348 38.0822 20.9873C38.0113 21.2016 38.0496 21.4073 38.2113 21.5691C38.3107 21.6684 38.4242 21.7578 38.5434 21.8316C41.1132 23.4337 43.6845 25.0315 46.2543 26.6336C47.7032 27.5361 49.1492 28.4414 50.5937 29.351C51.0819 29.6589 51.5132 30.0321 51.8481 30.5089C52.8996 32.0088 52.3136 34.0607 50.6391 34.7262C50.1382 34.9249 49.6089 34.9433 49.081 34.9433C44.7502 34.9462 40.4193 34.9448 36.0885 34.9433C36.0346 34.9433 35.9807 34.9391 35.8842 34.9334C36.6235 34.4098 37.0676 33.7272 37.2691 32.8886H37.5075C41.4354 32.8886 45.3632 32.8886 49.291 32.8858C49.4471 32.8858 49.6118 32.8687 49.7593 32.8191C50.3652 32.6176 50.5228 31.9152 50.063 31.4724C49.9424 31.3561 49.7948 31.2653 49.6501 31.1759C45.5378 28.6188 41.424 26.066 37.3145 23.5046C37.0563 23.3443 36.8534 23.3485 36.5993 23.5075C34.9859 24.5192 33.364 25.5182 31.7463 26.5257C31.6441 26.5896 31.5746 26.5867 31.4753 26.5243C30.9304 26.1766 30.3798 25.8375 29.832 25.4941C29.7852 25.4643 29.7412 25.4317 29.683 25.3919C29.754 25.3451 29.8093 25.3082 29.8661 25.2727C31.8158 24.0595 33.7641 22.8434 35.7181 21.6386C35.9622 21.4882 36.0757 21.3208 36.0757 21.0256C36.0757 20.7234 36.1041 20.4083 36.1935 20.1217C36.3851 19.4987 36.8377 19.1312 37.4635 18.9609C38.4285 18.697 39.172 18.1634 39.558 17.207C39.8063 16.5926 39.8617 15.9682 39.6375 15.3353C39.619 15.3297 39.6077 15.3254 39.5977 15.3254C37.8665 15.3183 36.1353 15.3126 34.4055 15.3041C34.3034 15.3041 34.2594 15.3467 34.2424 15.4347C34.1913 15.7071 34.1302 15.9782 34.0934 16.2534C34.0281 16.7302 33.6449 17.0836 33.1554 17.0992C32.6587 17.1162 32.2813 16.8125 32.1947 16.3216C32.1791 16.2336 32.1805 16.1413 32.1791 16.0505C32.1777 15.8036 32.1791 15.5567 32.1791 15.297H24.5632C24.5675 15.3282 24.5689 15.3509 24.5732 15.3737C24.7534 16.5316 24.5675 17.6242 23.953 18.626C23.2889 19.7102 22.3254 20.4211 21.1335 20.8369C20.9092 20.9149 20.8426 21.0214 20.888 21.2527C20.9064 21.3449 20.9376 21.4485 20.9986 21.5138C21.1093 21.6329 21.2356 21.7436 21.3733 21.8288C22.7384 22.683 24.1091 23.5273 25.4757 24.3802C28.0781 26.0035 30.6806 27.6269 33.2817 29.2545C33.8237 29.5936 34.3204 29.9853 34.6879 30.5217C35.7678 32.0968 35.0753 34.2197 33.293 34.7858C32.8389 34.9306 32.3664 34.9419 31.8953 34.9419C24.1531 34.9434 16.411 34.9434 8.66879 34.9419C8.04442 34.9419 7.41721 34.9632 6.79852 34.8994C5.68175 34.783 4.89845 34.1572 4.50822 33.1199C4.12225 32.0925 4.33794 31.1276 5.04319 30.2904C5.44478 29.8136 5.96414 29.4688 6.49059 29.141C10.4085 26.7003 14.3278 24.2624 18.2429 21.8203C18.9638 21.3704 18.89 21.5563 18.9113 20.7177C18.9113 20.712 18.9113 20.7063 18.9113 20.7007C18.9737 19.7755 19.4363 19.2135 20.3275 18.9453C20.6127 18.8588 20.8979 18.7495 21.1576 18.6062C22.28 17.9875 22.8519 16.6266 22.5085 15.4403C22.4787 15.3368 22.4517 15.2658 22.3098 15.2658C20.6297 15.2686 18.9496 15.263 17.2709 15.2559C17.1687 15.2559 17.1105 15.2843 17.0921 15.385C17.0367 15.6745 16.9701 15.9611 16.9275 16.252C16.848 16.7799 16.4393 17.1134 15.8689 17.0978C15.4176 17.085 15.0515 16.7175 15.0203 16.218C15.0005 15.9029 15.0161 15.5865 15.0161 15.2445H2.12853V15.2488ZM2.12853 13.248C2.59255 13.248 3.03386 13.248 3.47518 13.248C5.66614 13.2536 7.85569 13.2593 10.0467 13.265C11.9595 13.2692 13.8723 13.2707 15.7838 13.2792C15.9214 13.2792 16.0094 13.2366 16.0988 13.133C17.3376 11.6899 18.924 11.206 20.7631 11.4997C21.8983 11.6814 22.7923 12.3072 23.5316 13.1685C23.6125 13.2636 23.6934 13.3033 23.8197 13.3033C24.6824 13.3005 25.5452 13.309 26.4065 13.3104C28.5918 13.3147 30.7771 13.3175 32.961 13.3246C33.0674 13.3246 33.1341 13.2948 33.2036 13.2111C34.4439 11.714 36.053 11.2003 37.9346 11.5012C39.0954 11.687 40.0007 12.3355 40.7471 13.221C40.8238 13.3132 40.9018 13.3487 41.021 13.3487C41.617 13.3445 42.213 13.3487 42.809 13.3516C44.9999 13.3572 47.1895 13.3629 49.3805 13.3686C51.0606 13.3728 52.7407 13.3757 54.4194 13.3799C54.4861 13.3799 54.5542 13.3799 54.6436 13.3799V13.1827C54.6436 9.59541 54.6436 6.00813 54.6436 2.42085C54.6436 2.15265 54.618 2.12853 54.3527 2.12853C37.0421 2.12853 19.7315 2.12853 2.41943 2.12853C2.15265 2.12853 2.12711 2.15265 2.12711 2.41943C2.12711 5.9613 2.12711 9.50317 2.12711 13.045C2.12711 13.1061 2.12711 13.1671 2.12711 13.2494L2.12853 13.248ZM19.8038 32.8929C23.9133 32.8929 28.0228 32.8929 32.1309 32.8886C32.3139 32.8886 32.5069 32.8531 32.6758 32.785C33.0433 32.6389 33.232 32.2359 33.1341 31.8641C33.0631 31.5945 32.8702 31.4213 32.6431 31.2809C28.4826 28.6954 24.3192 26.1128 20.1628 23.5202C19.8876 23.3485 19.6761 23.3556 19.4037 23.5245C16.0732 25.5977 12.7357 27.6609 9.401 29.7285C8.51979 30.2748 7.63858 30.8239 6.75879 31.3745C6.45512 31.5647 6.33876 31.8612 6.40687 32.2288C6.46931 32.5608 6.67932 32.7723 7.0355 32.829C7.25828 32.8645 7.48533 32.89 7.71095 32.89C11.741 32.8943 15.771 32.8929 19.7996 32.8929H19.8038Z" fill="black"/>
</svg>
