<svg width="36" height="35" viewBox="0 0 36 35" fill="none" xmlns="http://www.w3.org/2000/svg">
<path d="M21.4168 29.0888L4.44899 30.5664L5.92662 13.5986C6.02623 12.4281 5.1629 11.5565 3.99243 11.6644C2.82195 11.764 1.78429 12.8017 1.68468 13.9722L0.00782199 33.0568C-0.0917931 34.2272 0.771538 35.0989 1.94201 34.991L21.0349 33.3307C22.2054 33.2311 23.243 32.1934 23.3427 31.023C23.4423 29.8525 22.5789 28.9809 21.4085 29.0888H21.4168Z" fill="black"/>
<path d="M13.8958 23.3526L32.6815 21.7173C33.7607 21.6259 34.7652 20.9452 35.0889 19.9076C35.5372 18.4881 34.5908 17.3425 33.2543 17.4587L16.3862 18.928C16.3364 18.928 16.2866 18.8865 16.2949 18.8367L17.7393 2.2093C17.8804 0.54905 16.685 -0.4388 15.141 0.192096C14.2777 0.54905 13.597 1.39578 13.5139 2.33382L11.862 21.3271C11.7541 22.5474 12.6672 23.4688 13.8958 23.3609V23.3526Z" fill="black"/>
</svg>
