<svg width="31" height="35" viewBox="0 0 31 35" fill="none" xmlns="http://www.w3.org/2000/svg">
<g clip-path="url(#clip0_3283_1387)">
<path d="M5.81181 35C4.7458 35 3.83485 34.6193 3.07619 33.8579C2.31752 33.0964 1.93819 32.1794 1.93819 31.1123V6.80545C1.93819 6.26913 1.50348 5.83284 0.969096 5.83284C0.434709 5.83284 0 5.39656 0 4.86023V2.91502C0 2.37869 0.434709 1.94241 0.969096 1.94241H8.7191C9.25348 1.94241 9.68819 1.50612 9.68819 0.969801C9.68819 0.433477 10.1229 -0.00280762 10.6573 -0.00280762H20.3455C20.8799 -0.00280762 21.3146 0.433477 21.3146 0.969801C21.3146 1.50612 21.7493 1.94241 22.2837 1.94241H30.0337C30.5681 1.94241 31.0028 2.37869 31.0028 2.91502V4.86023C31.0028 5.39656 30.5681 5.83284 30.0337 5.83284C29.4993 5.83284 29.0646 6.26913 29.0646 6.80545V31.1123C29.0646 32.1822 28.6852 33.0964 27.9266 33.8579C27.1679 34.6193 26.2542 35 25.191 35H5.81181ZM25.1882 5.83284H5.81181V31.1123H25.1854V5.83284H25.1882ZM11.6264 27.2219C12.6952 27.2219 13.5646 26.3521 13.5646 25.2767V11.6657C13.5646 10.5931 12.6979 9.72049 11.6264 9.72049C10.5576 9.72049 9.68819 10.5903 9.68819 11.6657V25.2767C9.68819 26.3493 10.5548 27.2219 11.6264 27.2219ZM19.3764 27.2219C20.4452 27.2219 21.3146 26.3521 21.3146 25.2767V11.6657C21.3146 10.5931 20.4479 9.72049 19.3764 9.72049C18.3076 9.72049 17.4382 10.5903 17.4382 11.6657V25.2767C17.4382 26.3493 18.3048 27.2219 19.3764 27.2219Z" fill="white"/>
</g>
<defs>
<clipPath id="clip0_3283_1387">
<rect width="31" height="35" fill="white"/>
</clipPath>
</defs>
</svg>
