<svg width="35" height="35" viewBox="0 0 35 35" fill="none" xmlns="http://www.w3.org/2000/svg">
<path d="M3.88889 31.1111H6.65972L25.6667 12.1042L22.8958 9.33333L3.88889 28.3403V31.1111ZM0 35V26.7361L25.6667 1.11806C26.0556 0.761574 26.485 0.486111 26.9549 0.291667C27.4248 0.0972222 27.919 0 28.4375 0C28.956 0 29.4583 0.0972222 29.9444 0.291667C30.4306 0.486111 30.8519 0.777778 31.2083 1.16667L33.8819 3.88889C34.2708 4.24537 34.5544 4.66667 34.7326 5.15278C34.9109 5.63889 35 6.125 35 6.61111C35 7.12963 34.9109 7.62384 34.7326 8.09375C34.5544 8.56366 34.2708 8.99306 33.8819 9.38194L8.26389 35H0ZM24.2569 10.7431L22.8958 9.33333L25.6667 12.1042L24.2569 10.7431Z" fill="white"/>
</svg>
