<svg width="36" height="35" viewBox="0 0 36 35" fill="none" xmlns="http://www.w3.org/2000/svg">
<path d="M23.3865 28.5451L4.85817 30.1587L6.47169 11.6304C6.58046 10.3522 5.63773 9.40045 4.35961 9.51829C3.08148 9.62706 1.94839 10.7602 1.83962 12.0383L0.00854138 32.8781C-0.100235 34.1562 0.842496 35.108 2.12062 34.9901L22.9695 33.1772C24.2476 33.0684 25.3807 31.9353 25.4895 30.6572C25.5982 29.3791 24.6555 28.4273 23.3774 28.5451H23.3865Z" fill="black"/>
<path d="M33.0313 0.0184487L12.5179 1.8042C11.3395 1.90391 10.2426 2.64722 9.88912 3.78031C9.39962 5.33037 10.433 6.58131 11.8924 6.4544L30.3119 4.84994C30.3663 4.84994 30.4207 4.89527 30.4116 4.94966L28.8344 23.1063C28.6803 24.9192 29.9856 25.9979 31.6716 25.309C32.6144 24.9192 33.3577 23.9946 33.4483 22.9703L35.2522 2.23024C35.37 0.897726 34.3729 -0.108457 33.0313 0.00938398V0.0184487Z" fill="black"/>
</svg>
