<svg width="176" height="62" viewBox="0 0 176 62" fill="none" xmlns="http://www.w3.org/2000/svg">
<path d="M3.77747 7.29188L6.88905 4.00354V17.8063L4.75575 16.0717H18.1598V21.407H4.75575L6.88905 19.5409V34.7453H0V1.95656H20.1369V7.29188H3.77747Z" fill="#090909"/>
<path d="M28.0289 7.29187C26.9643 7.29187 26.0312 7.01236 25.2379 6.44512C24.4446 5.882 24.05 5.08869 24.05 4.0693C24.05 3.04992 24.4446 2.23195 25.2379 1.66882C26.0312 1.1057 26.9602 0.826187 28.0289 0.826187C29.0976 0.826187 30.0512 1.1057 30.8404 1.66882C31.6337 2.23195 32.0283 3.03348 32.0283 4.0693C32.0283 5.10513 31.6337 5.90255 30.8404 6.45745C30.0471 7.01236 29.1099 7.28776 28.0289 7.28776V7.29187ZM24.6296 34.7453V11.1351H31.4529V34.7412H24.6296V34.7453Z" fill="#090909"/>
<path d="M48.1453 35.2304C47.241 35.2304 46.312 35.1523 45.3543 34.9961C44.3966 34.8399 43.5087 34.5275 42.6867 34.063C41.8646 33.5944 41.2028 32.9121 40.6972 32.0078C40.1916 31.1035 39.9409 29.9074 39.9409 28.4276V16.4704H34.4946V11.1351H36.0278C36.9197 11.1351 37.6267 11.0981 38.1529 11.0241C38.679 10.9501 39.0736 10.7611 39.3284 10.4569C39.5874 10.1568 39.7518 9.67591 39.8258 9.02236C39.8998 8.3688 39.9368 7.47273 39.9368 6.33415V3.3541H46.8505V11.1351H53.719V16.4704H46.8505V26.4752C46.8505 27.4987 46.9738 28.329 47.2163 28.9661C47.4588 29.6032 48.0713 29.9238 49.0496 29.9238C49.5387 29.9238 49.9991 29.8786 50.4389 29.7882C50.8787 29.6977 51.2075 29.6073 51.4295 29.521V34.7001C51.1171 34.8358 50.6814 34.955 50.1183 35.0659C49.5552 35.1769 48.8975 35.2304 48.1412 35.2304H48.1453Z" fill="#090909"/>
<path d="M88.2259 35.255C85.6775 35.255 83.4332 34.7289 81.4931 33.6766C79.553 32.6244 78.0362 31.1775 76.947 29.3319C75.8577 27.4863 75.3151 25.3571 75.3151 22.9402C75.3151 20.5233 75.8577 18.4147 76.947 16.5732C78.0362 14.7276 79.553 13.289 81.4931 12.2614C83.4332 11.2297 85.6775 10.7159 88.2259 10.7159C90.7744 10.7159 93.0187 11.2297 94.9588 12.2614C96.8989 13.289 98.4157 14.7276 99.5049 16.5732C100.594 18.4147 101.137 20.5397 101.137 22.9402C101.137 25.3407 100.594 27.4863 99.5049 29.3319C98.4157 31.1775 96.8989 32.6244 94.9588 33.6766C93.0187 34.7289 90.7744 35.255 88.2259 35.255ZM88.2259 29.7882C89.4262 29.7882 90.4702 29.5046 91.3622 28.9414C92.25 28.3783 92.9406 27.5809 93.4297 26.5533C93.9189 25.5257 94.1655 24.3172 94.1655 22.9402C94.1655 21.5632 93.923 20.3671 93.4297 19.3518C92.9406 18.3366 92.2541 17.5556 91.3622 17.0048C90.4702 16.4581 89.4303 16.1827 88.2259 16.1827C87.0216 16.1827 85.9981 16.454 85.102 17.0048C84.2059 17.5515 83.5113 18.3366 83.0222 19.3518C82.533 20.3671 82.2864 21.5632 82.2864 22.9402C82.2864 24.3172 82.5289 25.5216 83.0222 26.5533C83.5113 27.5809 84.2018 28.3783 85.102 28.9414C85.9981 29.5046 87.038 29.7882 88.2259 29.7882Z" fill="#090909"/>
<path d="M117.324 35.2756C114.73 35.2756 112.457 34.7536 110.5 33.7095C108.544 32.6655 107.027 31.2063 105.954 29.3401C104.881 27.474 104.343 25.316 104.343 22.8703C104.343 20.4247 104.881 18.2502 105.954 16.4376C107.027 14.6207 108.544 13.2109 110.5 12.2038C112.457 11.1968 114.73 10.6912 117.324 10.6912C119.264 10.6912 120.982 10.9789 122.482 11.5462C123.978 12.1175 125.228 12.8697 126.239 13.8028C127.25 14.7358 128.011 15.7593 128.529 16.8691C129.046 17.9831 129.305 19.0847 129.305 20.1821V20.363H122.482C122.482 20.2726 122.482 20.1862 122.47 20.1082C122.462 20.0259 122.441 19.9437 122.412 19.8533C122.293 19.2326 122.034 18.6448 121.635 18.0982C121.237 17.5515 120.674 17.1034 119.958 16.7541C119.239 16.4047 118.347 16.232 117.278 16.232C116.136 16.232 115.12 16.4828 114.224 16.9883C113.328 17.4898 112.621 18.2379 112.099 19.2244C111.577 20.2109 111.322 21.4276 111.322 22.8786C111.322 24.3295 111.581 25.5298 112.099 26.5574C112.617 27.585 113.324 28.3783 114.224 28.925C115.12 29.4717 116.14 29.7471 117.278 29.7471C118.417 29.7471 119.408 29.5662 120.147 29.2045C120.887 28.8428 121.442 28.3536 121.812 27.7371C122.182 27.1205 122.404 26.4464 122.478 25.7024H129.301C129.301 26.7999 129.046 27.9138 128.533 29.0483C128.023 30.1828 127.267 31.2145 126.268 32.1476C125.269 33.0806 124.019 33.8369 122.523 34.4165C121.027 34.992 119.292 35.2838 117.324 35.2838V35.2756Z" fill="#090909"/>
<path d="M133.593 34.7412V0H140.128V19.8944L138.772 19.1833L147.774 11.1351H156.22L144.53 21.5838L145.998 18.9613L156.023 34.7412H148.776L141.485 22.5826L143.24 22.7183L139.417 26.1874L140.128 23.2321V34.7453H133.593V34.7412Z" fill="#090909"/>
<path d="M159.024 34.7412V11.1351H165.937V19.2737L164.515 18.3818C164.68 17.272 164.976 16.2485 165.407 15.3154C165.835 14.3823 166.39 13.5726 167.072 12.882C167.754 12.1915 168.564 11.6571 169.505 11.2708C170.447 10.8844 171.523 10.6912 172.74 10.6912C173.69 10.6912 174.43 10.7611 174.972 10.9008C175.515 11.0406 175.852 11.1474 175.983 11.2214L174.849 17.3994C174.713 17.3254 174.417 17.2062 173.957 17.0459C173.496 16.8856 172.905 16.8034 172.177 16.8034C170.993 16.8034 169.999 17.0007 169.201 17.4035C168.4 17.8063 167.758 18.3366 167.277 18.9942C166.796 19.656 166.451 20.3835 166.242 21.1851C166.036 21.9866 165.929 22.7923 165.929 23.6102V34.7453H159.015L159.024 34.7412Z" fill="#090909"/>
<path d="M74.456 35.5058C74.045 35.0947 74.382 32.3284 73.8313 31.198C73.3873 30.1458 72.3145 29.3401 71.1677 29.3401L64.8171 29.1922V1.95656H57.9034V34.7453L69.2358 34.7042C69.1413 35.4153 68.759 36.147 68.1589 36.447C59.8394 40.615 51.5528 44.8282 43.2621 49.0331C41.7782 49.7853 40.2697 50.5005 38.8311 51.3062C37.1047 52.268 35.7195 53.4601 35.1399 55.1782C34.0794 58.3186 36.7348 61.5411 40.7424 61.8946C41.4864 61.9604 42.2386 61.9933 42.9867 61.9933C62.6263 61.9974 82.2617 62.0097 101.901 61.9851C104.762 61.9851 107.023 60.9985 108.367 58.8611C109.526 57.0197 108.988 54.4054 107.237 52.8928C105.925 51.7583 104.322 50.9691 102.719 50.1594" fill="#090909"/>
<path d="M101.552 56.066C101.441 56.6251 101.018 57.0238 100.331 57.1594C99.8707 57.2498 99.3857 57.2868 98.9089 57.2868C89.8906 57.2951 80.8765 57.291 71.8582 57.291C69.1371 57.291 66.4202 57.291 63.6991 57.291C57.1676 57.291 50.6403 57.291 44.1088 57.291C43.1511 57.291 42.3701 56.9005 42.1029 56.2921C41.7782 55.5605 42.1071 54.8823 43.0853 54.389C52.4653 49.6456 61.8535 44.9063 71.2334 40.1629C71.6157 39.9697 71.9487 39.9902 72.3227 40.1834C74.345 41.2151 76.3756 42.2345 78.4061 43.258C83.9346 46.0407 89.4672 48.8235 94.9958 51.6104C96.9318 52.5886 98.8719 53.5628 100.8 54.5534C101.486 54.9069 101.675 55.4577 101.552 56.0743V56.066Z" fill="white"/>
</svg>
