<svg width="38" height="25" viewBox="0 0 38 25" fill="none" xmlns="http://www.w3.org/2000/svg">
<path d="M36.5 11H1.5C0.67 11 0 11.67 0 12.5C0 13.33 0.67 14 1.5 14H36.5C37.33 14 38 13.33 38 12.5C38 11.67 37.33 11 36.5 11Z" fill="black"/>
<path d="M1.5 3H36.5C37.33 3 38 2.33 38 1.5C38 0.67 37.33 0 36.5 0H1.5C0.67 0 0 0.67 0 1.5C0 2.33 0.67 3 1.5 3Z" fill="black"/>
<path d="M36.5 22H1.5C0.67 22 0 22.67 0 23.5C0 24.33 0.67 25 1.5 25H36.5C37.33 25 38 24.33 38 23.5C38 22.67 37.33 22 36.5 22Z" fill="black"/>
</svg>
