<svg width="64" height="30" viewBox="0 0 64 30" fill="none" xmlns="http://www.w3.org/2000/svg">
<g clip-path="url(#clip0_3283_1394)">
<path d="M2 12.7279C0.89543 12.7279 0 13.6234 0 14.7279C0 15.8325 0.89543 16.7279 2 16.7279V14.7279V12.7279ZM63.4142 16.1421C64.1952 15.3611 64.1952 14.0948 63.4142 13.3137L50.6862 0.585787C49.9052 -0.195262 48.639 -0.195262 47.8578 0.585787C47.0768 1.36683 47.0768 2.63317 47.8578 3.41421L59.1716 14.7279L47.8578 26.0417C47.0768 26.8227 47.0768 28.0891 47.8578 28.8701C48.639 29.6511 49.9052 29.6511 50.6862 28.8701L63.4142 16.1421ZM2 14.7279V16.7279H62V14.7279V12.7279H2V14.7279Z" fill="black"/>
</g>
<defs>
<clipPath id="clip0_3283_1394">
<rect width="64" height="30" fill="white"/>
</clipPath>
</defs>
</svg>
