<svg width="35" height="35" viewBox="0 0 35 35" fill="none" xmlns="http://www.w3.org/2000/svg">
<g clip-path="url(#clip0_3283_1384)">
<path d="M0.683417 31.0168C-0.227806 31.9279 -0.227806 33.4054 0.683417 34.3166C1.59464 35.2277 3.07202 35.2277 3.98326 34.3166L2.33333 32.6667L0.683417 31.0168ZM35 2.33333C35 1.04467 33.9554 0 32.6667 0H11.6667C10.378 0 9.33333 1.04467 9.33333 2.33333C9.33333 3.62199 10.378 4.66667 11.6667 4.66667H30.3333V23.3333C30.3333 24.622 31.378 25.6667 32.6667 25.6667C33.9554 25.6667 35 24.622 35 23.3333V2.33333ZM2.33333 32.6667L3.98326 34.3166L34.3166 3.98326L32.6667 2.33333L31.0168 0.683418L0.683417 31.0168L2.33333 32.6667Z" fill="black"/>
</g>
<defs>
<clipPath id="clip0_3283_1384">
<rect width="35" height="35" fill="white"/>
</clipPath>
</defs>
</svg>
