<svg width="35" height="35" viewBox="0 0 35 35" fill="none" xmlns="http://www.w3.org/2000/svg">
<path d="M0.683417 31.0168C-0.227806 31.928 -0.227806 33.4055 0.683417 34.3166C1.59464 35.2278 3.07202 35.2278 3.98326 34.3166L2.33333 32.6667L0.683417 31.0168ZM35 2.33334C35 1.04467 33.9554 0 32.6667 0H11.6667C10.378 0 9.33333 1.04467 9.33333 2.33334C9.33333 3.62199 10.378 4.66668 11.6667 4.66668H30.3333V23.3334C30.3333 24.6221 31.378 25.6667 32.6667 25.6667C33.9554 25.6667 35 24.6221 35 23.3334V2.33334ZM2.33333 32.6667L3.98326 34.3166L34.3166 3.98326L32.6667 2.33334L31.0168 0.683419L0.683417 31.0168L2.33333 32.6667Z" fill="white"/>
</svg>
