<svg width="39" height="35" viewBox="0 0 39 35" fill="none" xmlns="http://www.w3.org/2000/svg">
<path d="M29.1638 0H9.46125C7.96387 0 6.75 1.23146 6.75 2.75055V12.8473C6.75 14.3664 7.96387 15.5978 9.46125 15.5978H29.1638C30.6612 15.5978 31.875 14.3664 31.875 12.8473V2.75055C31.875 1.23146 30.6612 0 29.1638 0Z" fill="black"/>
<path d="M15.3 18.6413H2.325C1.04094 18.6413 0 19.6974 0 21V32.6413C0 33.944 1.04094 35 2.325 35H15.3C16.5841 35 17.625 33.944 17.625 32.6413V21C17.625 19.6974 16.5841 18.6413 15.3 18.6413Z" fill="black"/>
<path d="M36.675 18.6413H23.7C22.4159 18.6413 21.375 19.6974 21.375 21V32.6413C21.375 33.944 22.4159 35 23.7 35H36.675C37.9591 35 39 33.944 39 32.6413V21C39 19.6974 37.9591 18.6413 36.675 18.6413Z" fill="black"/>
</svg>
