<svg width="48" height="35" viewBox="0 0 48 35" fill="none" xmlns="http://www.w3.org/2000/svg">
<path d="M25.7867 14.125C25.5821 14.7929 25.8713 15.1395 26.4534 15.4837C31.8441 18.6674 37.2121 21.8873 42.5864 25.0964C43.5473 25.6701 44.526 26.2184 45.4579 26.832C46.5754 27.5675 47.4732 28.4782 47.8483 29.791C48.5352 32.1897 46.8141 34.6511 44.2166 34.9204C43.7342 34.97 43.2468 34.9953 42.7631 34.9953C30.0384 34.9989 17.3136 35.0062 4.58762 34.9893C2.73263 34.9869 1.27036 34.2356 0.397803 32.6027C-0.353535 31.1969 -0.00248944 29.1992 1.1302 28.0422C1.97119 27.1822 2.99781 26.5807 4.02317 25.9696C10.1298 22.333 16.2352 18.6928 22.3457 15.0622C22.5642 14.9318 22.6336 14.7989 22.645 14.5573C22.6702 14.0247 22.6513 13.4643 22.8268 12.9715C23.1425 12.0826 23.8105 11.4884 24.798 11.236C26.6277 10.7686 27.8791 9.68518 28.3173 7.90009C28.8438 5.75508 27.2995 3.54848 25.0215 3.07745C22.4934 2.55569 19.9654 4.25623 19.6308 6.70319C19.6068 6.87952 19.5828 7.05586 19.5588 7.23098C19.4553 7.98101 18.7469 8.50156 17.8983 8.45084C17.1823 8.40856 16.6381 7.80709 16.6014 7.07639C16.4423 3.94704 19.0297 0.839439 22.323 0.189656C25.3713 -0.411816 27.9081 0.417926 29.9096 2.67043C32.0815 5.11496 32.1106 8.82162 30.0422 11.3604C29.032 12.5995 27.7427 13.4546 26.2021 13.9752C26.0506 14.0259 25.9004 14.0827 25.7867 14.1225V14.125ZM23.962 31.9457C25.8625 31.9457 27.7616 31.9457 29.6621 31.9457C34.2244 31.9457 38.7867 31.9457 43.3491 31.9457C44.0196 31.9457 44.5626 31.6244 44.7507 31.1244C44.978 30.5241 44.7469 29.9661 44.065 29.5603C37.5101 25.6628 30.9526 21.7702 24.3977 17.8727C24.1312 17.7145 23.8976 17.7314 23.6362 17.8884C22.2232 18.735 20.8039 19.5732 19.3871 20.4126C15.5243 22.7002 11.6603 24.9865 7.79753 27.2752C6.44386 28.0772 5.09019 28.8804 3.74283 29.692C3.26299 29.9806 3.1304 30.436 3.21753 30.9408C3.29582 31.3998 3.59004 31.7271 4.06862 31.837C4.39063 31.9107 4.73031 31.9396 5.06241 31.9409C11.3623 31.9469 17.6622 31.9457 23.962 31.9457Z" fill="black"/>
</svg>
