<svg width="38" height="36" viewBox="0 0 38 36" fill="none" xmlns="http://www.w3.org/2000/svg">
<path d="M23.3483 0C15.2647 0 8.69666 6.39054 8.69666 14.2558C8.69666 17.4118 9.76775 20.3121 11.5563 22.6815L0.117855 33.801C-0.165074 34.0763 0.0774367 34.7744 0.673608 35.3446C1.26978 35.9247 1.9771 36.1606 2.26003 35.8853L13.5974 24.8543C16.1943 27.1155 19.5995 28.5018 23.3483 28.5018C31.432 28.5018 38 22.1113 38 14.246C38 6.38071 31.4219 0 23.3483 0ZM23.3483 25.5622C16.942 25.5622 11.728 20.489 11.728 14.2558C11.728 8.02258 16.9319 2.94948 23.3483 2.94948C29.7648 2.94948 34.9686 8.02258 34.9686 14.2558C34.9686 20.489 29.7546 25.5622 23.3483 25.5622Z" fill="black"/>
</svg>
