<svg width="38" height="35" viewBox="0 0 38 35" fill="none" xmlns="http://www.w3.org/2000/svg">
<path d="M33.2414 0H4.75C2.13318 0 0 2.20979 0 4.92419V30.0758C0 32.7902 2.13318 35 4.75 35H33.25C35.8668 35 38 32.7902 38 30.0758V4.92419C38 2.20979 35.8668 0 33.25 0H33.2414ZM3.25591 4.92419C3.25591 4.01939 3.92955 3.27989 4.75 3.27989H33.25C34.0705 3.27989 34.7441 4.01939 34.7441 4.92419V10.1703H3.25591V4.92419ZM3.25591 13.4502H34.7355V21.3323H3.25591V13.4502ZM33.2414 31.7201H4.75C3.92955 31.7201 3.25591 30.9806 3.25591 30.0845V24.6122H34.7355V30.0845C34.7355 30.9893 34.0618 31.7201 33.2414 31.7201Z" fill="black"/>
</svg>
