<svg width="29" height="35" viewBox="0 0 29 35" fill="none" xmlns="http://www.w3.org/2000/svg">
<path d="M14.551 34.9974C10.9655 34.9974 7.37899 35.0001 3.79344 34.9956C2.93861 34.9947 2.12897 34.8074 1.42144 34.3041C0.453664 33.6162 -0.00537425 32.6402 4.74575e-05 31.4877C0.0145053 28.3598 0.836798 25.4876 2.87898 23.0422C4.81272 20.7256 7.26423 19.285 10.2597 18.806C10.8995 18.7033 11.5528 18.6529 12.2016 18.643C13.7215 18.6196 15.2423 18.6205 16.7622 18.6394C19.417 18.6727 21.8251 19.4785 23.9514 21.0578C26.5258 22.9702 28.1279 25.5128 28.7432 28.6561C28.952 29.7221 29.0514 30.8017 28.9737 31.892C28.8707 33.3407 27.6788 34.6399 26.1833 34.893C25.7902 34.9596 25.3863 34.9938 24.9869 34.9947C21.508 35.0028 18.0299 34.9992 14.551 34.9992V34.9974Z" fill="white"/>
<path d="M14.3679 0.00037322C18.8535 -0.0311399 22.4833 3.63248 22.383 8.16137C22.28 12.8028 18.5002 16.0225 14.0417 15.8848C9.90315 15.7569 6.29771 12.3076 6.38808 7.85344C6.47663 3.51994 10.0622 -0.0419444 14.3679 0.00037322Z" fill="white"/>
</svg>
