<svg width="45" height="35" viewBox="0 0 45 35" fill="none" xmlns="http://www.w3.org/2000/svg">
<path d="M17.4431 26.3138C17.4637 26.6053 17.1212 26.6594 16.9809 26.7094C16.2877 26.9509 15.5822 27.1674 14.8807 27.3881C14.0802 27.638 13.2756 27.8795 12.471 28.1335C11.1589 28.5499 10.5606 29.5618 10.2264 30.8193C9.9169 31.9727 9.56617 33.1137 9.22782 34.2546C9.19069 34.3879 9.15355 34.5336 9.07103 34.6335C8.94724 34.7834 8.78632 34.9958 8.63778 35C8.48924 35.0041 8.25404 34.8168 8.19628 34.6585C7.95696 33.9923 7.77953 33.3094 7.5691 32.6306C7.26376 31.6396 6.97905 30.6444 6.63245 29.67C6.3725 28.9371 5.79071 28.4791 5.08101 28.2501C3.6616 27.7879 2.67956 27.513 1.2519 27.08L0.426666 26.6636C0.232735 26.4762 -0.0230881 26.5387 0.001669 26.268C0.0264261 26.0098 0.393657 25.8932 0.624723 25.8266C2.02763 25.4144 3.43878 25.0355 4.84994 24.6565C5.87323 24.3817 6.48804 23.703 6.7975 22.7078C7.26788 21.2045 7.73414 19.6972 8.21691 18.1981C8.2788 18.0024 8.3572 17.6943 8.56763 17.6651C8.7987 17.6318 9.00914 17.9316 9.07928 18.1232C9.35161 18.8311 9.55792 19.5639 9.78899 20.2843C10.0654 21.1379 10.3048 22.0082 10.6266 22.8452C11.0021 23.8237 11.7035 24.4358 12.7516 24.6982C14.0843 25.0313 15.3965 25.4477 16.7086 25.8558C16.9438 25.9307 17.4224 25.9515 17.4513 26.3138H17.4431Z" fill="black"/>
<path d="M27.6554 26.6677C27.2428 26.2513 28.3775 25.9515 28.753 25.8432C29.9908 25.4851 31.2204 25.1062 32.4707 24.7939C33.824 24.4607 34.41 23.4655 34.7731 22.2496C35.1816 20.8922 35.5694 19.5264 35.9944 18.173C36.0522 17.9815 36.1718 17.6734 36.3864 17.6692C36.601 17.665 36.7248 17.969 36.7866 18.1564C37.1663 19.339 37.5087 20.5382 37.8718 21.725C38.1153 22.5245 38.3794 23.3156 39.0643 23.8569C39.3696 24.0985 39.6956 24.3608 40.0546 24.4857C41.2883 24.9063 42.5427 25.2644 43.7888 25.6516C44.0817 25.7433 44.3871 25.8182 44.6635 25.9556C45.0927 26.168 45.1092 26.4678 44.7254 26.7385C44.5728 26.8426 44.3953 26.9258 44.2179 26.98C42.7614 27.4338 41.0696 27.413 39.6296 27.9169C38.7218 28.2333 38.9199 28.0959 38.3917 29.1661C37.9791 29.9989 37.5665 32.0809 37.3602 33.4592C37.3024 33.8548 37.0672 34.292 36.8197 34.6793C36.7289 34.8208 36.5515 35.0041 36.4277 34.9957C36.2874 34.9874 36.0976 34.8 36.0439 34.6501C35.751 33.8215 35.5075 32.972 35.2187 32.1392C34.9051 31.2273 34.5956 30.307 34.216 29.4243C33.9272 28.7538 33.3289 28.3749 32.6522 28.1626C31.3401 27.7545 30.0197 27.3756 28.7117 26.955" fill="black"/>
<path d="M22.8278 0.0220971C23.2032 0.230298 23.2651 0.775786 23.4013 1.18386C23.818 2.44556 24.1853 3.72392 24.5855 4.98978C24.9445 6.1224 25.8481 6.63041 26.8756 6.95937C28.035 7.32997 29.211 7.66309 30.3787 8.01287C30.5272 8.05867 30.6799 8.09615 30.8078 8.17526C31.1544 8.38763 31.1585 8.76239 30.7996 8.94977C30.5602 9.07469 30.2797 9.11217 30.0156 9.19129C28.7365 9.57854 27.4408 9.92416 26.1782 10.3614C24.9858 10.7736 24.5731 11.8479 24.2513 12.9514C23.913 14.1132 23.5787 15.2791 23.2445 16.4409C23.2156 16.5408 23.195 16.6532 23.1331 16.7282C23.0299 16.8531 22.8732 17.0571 22.7741 17.0363C22.6256 17.0072 22.444 16.8364 22.3945 16.6865C22.1923 16.0619 22.0479 15.4207 21.8622 14.7919C21.6064 13.9299 21.3382 13.0722 21.0659 12.2185C20.6615 10.9568 19.663 10.3822 18.5118 10.0241C17.2987 9.64517 16.0691 9.3287 14.856 8.94977C14.6703 8.89148 14.3815 8.73324 14.3773 8.51671C14.3732 8.30019 14.662 8.10864 14.8477 8.05867C15.9535 7.74637 17.0676 7.46738 18.1899 7.20505C19.7579 6.84278 20.8431 5.99331 21.2433 4.34436C21.5239 3.18676 21.8787 2.04165 22.2253 0.900707C22.3161 0.600897 22.3698 0.22197 22.6256 0.0387532C22.6792 0.00127694 22.7659 -0.0153792 22.8236 0.0179331L22.8278 0.0220971Z" fill="black"/>
</svg>
